<svg xmlns="http://www.w3.org/2000/svg" xmlns:xlink="http://www.w3.org/1999/xlink" version="1.1" width="1000" height="1000" viewBox="0 0 1000 1000" xml:space="preserve">
<desc>Created with Fabric.js 3.5.0</desc>
<defs>
</defs>
<rect x="0" y="0" width="100%" height="100%" fill="rgba(51,51,51,0)"/>
<g transform="matrix(1.7767 0 0 1.7767 497.5044 497.5054)" id="419973">
<path style="stroke: rgb(0,0,0); stroke-width: 5; stroke-dasharray: none; stroke-linecap: butt; stroke-dashoffset: 0; stroke-linejoin: miter; stroke-miterlimit: 4; is-custom-font: none; font-file-url: none; fill: rgb(255,255,255); fill-rule: evenodd; opacity: 1;" vector-effect="non-scaling-stroke" transform=" translate(-209.5, -255.84)" d="M 314.98 303.63 c 57.47 0 104.02 46.58 104.02 104.02 c 0 57.47 -46.58 104.03 -104.02 104.03 c -57.47 0 -104.03 -46.58 -104.03 -104.03 c 0 -57.47 46.59 -104.02 104.03 -104.02 z M 93 39.4 h 46.13 C 141.83 17.18 159.77 0 181.52 0 c 21.62 0 39.45 16.95 42.34 38.94 l 46.76 0.46 c 2.61 0 4.7 2.1 4.7 4.71 v 51.85 c 0 2.6 -2.09 4.7 -4.7 4.7 H 93.05 c -2.56 0 -4.71 -2.1 -4.71 -4.7 V 44.11 C 88.3 41.5 90.4 39.4 93 39.4 z M 41.72 59.28 h 23.94 v 24.38 H 41.72 c -4.76 0 -9.11 1.95 -12.24 5.09 c -3.14 3.13 -5.1 7.48 -5.1 12.24 v 315.53 c 0 4.76 1.96 9.1 5.1 12.24 c 3.12 3.16 7.47 5.12 12.24 5.12 h 142.62 c 1.68 8.44 4.18 16.6 7.37 24.38 H 41.72 c -11.4 0 -21.85 -4.72 -29.44 -12.3 C 4.72 438.44 0 428 0 416.52 V 100.99 c 0 -11.48 4.7 -21.92 12.25 -29.47 c 7.55 -7.55 18 -12.24 29.47 -12.24 z m 297.56 217.36 V 100.99 c 0 -4.52 -1.76 -8.67 -4.61 -11.75 l -0.51 -0.48 c -3.15 -3.14 -7.48 -5.1 -12.24 -5.1 h -23.91 V 59.28 h 23.91 c 11.48 0 21.92 4.71 29.46 12.26 l 0.72 0.78 c 7.15 7.51 11.56 17.64 11.56 28.67 V 283.6 c -7.8 -3.06 -15.95 -5.41 -24.38 -6.96 z m -206.75 -8.06 c -7.13 0 -12.92 -5.79 -12.92 -12.93 c 0 -7.13 5.79 -12.92 12.92 -12.92 h 142.82 c 7.14 0 12.93 5.79 12.93 12.92 c 0 7.14 -5.79 12.93 -12.93 12.93 H 132.53 z M 89.5 241.22 c 7.98 0 14.43 6.46 14.43 14.44 c 0 7.98 -6.45 14.44 -14.43 14.44 c -7.98 0 -14.44 -6.46 -14.44 -14.44 c 0 -7.98 6.46 -14.44 14.44 -14.44 z m 0 78.62 c 7.98 0 14.43 6.47 14.43 14.44 s -6.45 14.44 -14.43 14.44 c -7.98 0 -14.44 -6.47 -14.44 -14.44 s 6.46 -14.44 14.44 -14.44 z m 43.04 27.36 c -7.13 0 -12.93 -5.79 -12.93 -12.93 c 0 -7.13 5.8 -12.92 12.93 -12.92 h 80.96 a 133.654 133.654 0 0 0 -17.27 25.85 h -63.69 z M 89.5 162.61 c 7.98 0 14.43 6.46 14.43 14.44 c 0 7.98 -6.45 14.44 -14.43 14.44 c -7.98 0 -14.44 -6.46 -14.44 -14.44 c 0 -7.98 6.46 -14.44 14.44 -14.44 z m 43.03 27.36 c -7.13 0 -12.92 -5.8 -12.92 -12.93 s 5.79 -12.93 12.92 -12.93 h 142.82 c 7.14 0 12.93 5.8 12.93 12.93 s -5.79 12.93 -12.93 12.93 H 132.53 z m 48.5 -169.81 c 12.3 0 22.26 9.97 22.26 22.27 c 0 12.29 -9.96 22.26 -22.26 22.26 s -22.27 -9.97 -22.27 -22.26 c 0 -12.3 9.97 -22.27 22.27 -22.27 z m 103.62 367.48 l 19.48 18.45 l 38.62 -39.2 c 3.6 -3.67 5.85 -6.59 10.31 -2.03 l 14.42 14.76 c 4.73 4.67 4.48 7.4 0.02 11.78 l -55.16 54.19 c -9.39 9.23 -7.77 9.81 -17.3 0.32 l -34.68 -34.48 c -1.96 -2.15 -1.75 -4.33 0.39 -6.5 l 16.73 -17.32 c 2.54 -2.64 4.56 -2.47 7.17 0.03 z" stroke-linecap="round"/>
</g>
</svg>