<svg xmlns="http://www.w3.org/2000/svg" shape-rendering="geometricPrecision" text-rendering="geometricPrecision" image-rendering="optimizeQuality" fill-rule="evenodd" clip-rule="evenodd" viewBox="0 0 419 511.68"><path d="M314.98 303.63c57.47 0 104.02 46.58 104.02 104.02 0 57.47-46.58 104.03-104.02 104.03-57.47 0-104.03-46.58-104.03-104.03 0-57.47 46.59-104.02 104.03-104.02zM93 39.4h46.13C141.83 17.18 159.77 0 181.52 0c21.62 0 39.45 16.95 42.34 38.94l46.76.46c2.61 0 4.7 2.1 4.7 4.71v51.85c0 2.6-2.09 4.7-4.7 4.7H93.05c-2.56 0-4.71-2.1-4.71-4.7V44.11C88.3 41.5 90.4 39.4 93 39.4zM41.72 59.28h23.94v24.38H41.72c-4.76 0-9.11 1.95-12.24 5.09-3.14 3.13-5.1 7.48-5.1 12.24v315.53c0 4.76 1.96 9.1 5.1 12.24 3.12 3.16 7.47 5.12 12.24 5.12h142.62c1.68 8.44 4.18 16.6 7.37 24.38H41.72c-11.4 0-21.85-4.72-29.44-12.3C4.72 438.44 0 428 0 416.52V100.99c0-11.48 4.7-21.92 12.25-29.47 7.55-7.55 18-12.24 29.47-12.24zm297.56 217.36V100.99c0-4.52-1.76-8.67-4.61-11.75l-.51-.48c-3.15-3.14-7.48-5.1-12.24-5.1h-23.91V59.28h23.91c11.48 0 21.92 4.71 29.46 12.26l.72.78c7.15 7.51 11.56 17.64 11.56 28.67V283.6c-7.8-3.06-15.95-5.41-24.38-6.96zm-206.75-8.06c-7.13 0-12.92-5.79-12.92-12.93 0-7.13 5.79-12.92 12.92-12.92h142.82c7.14 0 12.93 5.79 12.93 12.92 0 7.14-5.79 12.93-12.93 12.93H132.53zM89.5 241.22c7.98 0 14.43 6.46 14.43 14.44 0 7.98-6.45 14.44-14.43 14.44-7.98 0-14.44-6.46-14.44-14.44 0-7.98 6.46-14.44 14.44-14.44zm0 78.62c7.98 0 14.43 6.47 14.43 14.44s-6.45 14.44-14.43 14.44c-7.98 0-14.44-6.47-14.44-14.44s6.46-14.44 14.44-14.44zm43.04 27.36c-7.13 0-12.93-5.79-12.93-12.93 0-7.13 5.8-12.92 12.93-12.92h80.96a133.654 133.654 0 0 0-17.27 25.85h-63.69zM89.5 162.61c7.98 0 14.43 6.46 14.43 14.44 0 7.98-6.45 14.44-14.43 14.44-7.98 0-14.44-6.46-14.44-14.44 0-7.98 6.46-14.44 14.44-14.44zm43.03 27.36c-7.13 0-12.92-5.8-12.92-12.93s5.79-12.93 12.92-12.93h142.82c7.14 0 12.93 5.8 12.93 12.93s-5.79 12.93-12.93 12.93H132.53zm48.5-169.81c12.3 0 22.26 9.97 22.26 22.27 0 12.29-9.96 22.26-22.26 22.26s-22.27-9.97-22.27-22.26c0-12.3 9.97-22.27 22.27-22.27zm103.62 367.48 19.48 18.45 38.62-39.2c3.6-3.67 5.85-6.59 10.31-2.03l14.42 14.76c4.73 4.67 4.48 7.4.02 11.78l-55.16 54.19c-9.39 9.23-7.77 9.81-17.3.32l-34.68-34.48c-1.96-2.15-1.75-4.33.39-6.5l16.73-17.32c2.54-2.64 4.56-2.47 7.17.03z"/></svg>