<?xml version="1.0" standalone="no"?>
<!DOCTYPE svg PUBLIC "-//W3C//DTD SVG 20010904//EN"
 "http://www.w3.org/TR/2001/REC-SVG-20010904/DTD/svg10.dtd">
<svg version="1.0" xmlns="http://www.w3.org/2000/svg"
 width="512.000000pt" height="512.000000pt" viewBox="0 0 512.000000 512.000000"
 preserveAspectRatio="xMidYMid meet">
<metadata>
Created by potrace 1.14, written by Peter Selinger 2001-2017
</metadata>
<g transform="translate(0.000000,512.000000) scale(0.100000,-0.100000)"
fill="#000000" stroke="none">
<path d="M1832 3761 c-102 -36 -184 -139 -228 -286 -25 -82 -25 -258 0 -340
26 -86 61 -151 113 -206 59 -63 116 -90 189 -90 183 0 324 201 324 466 0 108
-19 194 -60 275 -78 155 -211 226 -338 181z"/>
<path d="M3165 3771 c-90 -23 -163 -88 -215 -191 -41 -81 -60 -167 -60 -275 0
-204 84 -376 214 -440 168 -82 340 30 412 270 25 82 25 258 0 340 -61 204
-212 332 -351 296z"/>
<path d="M3862 2092 c-225 -282 -553 -475 -938 -553 -137 -27 -406 -37 -553
-20 -128 15 -315 61 -429 105 -243 94 -415 207 -611 403 l-144 145 -53 -53
c-30 -29 -54 -58 -54 -64 1 -25 175 -241 285 -351 283 -285 592 -453 958 -521
141 -26 400 -24 544 5 342 68 651 241 899 504 85 91 215 260 254 332 l25 46
-56 56 -56 55 -71 -89z"/>
</g>
</svg>
