<svg xmlns="http://www.w3.org/2000/svg" shape-rendering="geometricPrecision" text-rendering="geometricPrecision" image-rendering="optimizeQuality" fill-rule="evenodd" clip-rule="evenodd" viewBox="0 0 387 511.39"><path fill-rule="nonzero" d="M63.38 0h198.16c3.35 0 6.38 1.45 8.47 3.77l113.47 109.17c2.32 2.23 3.49 5.22 3.49 8.2l.03 326.88c0 34.72-28.65 63.37-63.37 63.37H63.38C28.62 511.39 0 482.78 0 448.02V63.38C0 28.57 28.58 0 63.38 0zm212.2 40.69v30.37c2.4 31.65 23.82 43.6 53.52 44.11l23.84-.04-77.36-74.44zm88.61 95.97c-1.57.81-3.35 1.27-5.24 1.27l-30.04-.05c-41.78-.67-72.7-21.39-76.03-65.17l-.12-1.65V22.81H63.38c-22.36 0-40.57 18.21-40.57 40.57v186.57l341.38-.12V136.66zM22.81 272.53v175.49c0 22.32 18.26 40.56 40.57 40.56h260.25c22.16 0 40.56-18.4 40.56-40.56V272.65l-341.38-.12zm41.01-129.58H94.1c1.13 0 1.88.75 1.88 1.88v87.61c0 1.12-.75 1.88-1.88 1.88H63.82c-1.14 0-1.9-.76-1.9-1.88v-87.61c-.36-1.13.76-1.88 1.9-1.88zm57.3-35.96h30.27c1.14 0 1.88.74 1.88 1.88v123.57c0 1.12-.74 1.88-1.88 1.88h-30.27c-1.12 0-1.88-.76-1.88-1.88V108.87c0-1.14.76-1.88 1.88-1.88zm171.87 79.12h30.28c1.14 0 1.89.76 1.89 1.89v44.06c0 1.12-.75 1.86-1.89 1.86h-30.28c-1.11 0-1.85-.74-1.85-1.86V188c0-.76.74-1.89 1.85-1.89zm-114.58-21.4h30.28c1.14 0 1.88.75 1.88 1.88v65.47c0 1.12-.74 1.86-1.88 1.86h-30.28c-1.11 0-1.85-.74-1.85-1.86v-65.47c0-.75.74-1.88 1.85-1.88zm57.28-15.25h30.28c1.13 0 1.89.79 1.89 1.89v81.09c0 1.12-.76 1.88-1.89 1.88h-30.28c-1.13 0-1.88-.76-1.88-1.88v-81.09c0-1.1.75-1.89 1.88-1.89zm-33.6 243.69 60.31 1.07c0 21.64-10.64 41.51-28.38 53.57l-31.93-54.64zm-4.03-93.33c14.18 1.09 23.75 2.83 36.55 9.22 24.49 12.78 41.53 38.32 42.94 67.43l.35 4.61h-4.61l-69.9-2.14h-3.92l-1.41-79.12zm9.23 70.61 61.39 1.78c-3.66-35.41-28.36-56.77-62.1-63.53l.71 61.75zm-25.44 16.44 34.42 59.62c-10.64 6.03-22.34 9.24-34.42 9.24-37.97 0-68.84-30.88-68.84-68.86 0-36.9 29.1-67.42 66-68.85l2.84 68.85z"/></svg>