<?xml version="1.0" encoding="utf-8"?>
<svg id="Layer_1" data-name="Layer 1" viewBox="0 0 122.88 64.97" xmlns="http://www.w3.org/2000/svg">
  <defs>
    <style>.cls-1{fill-rule:evenodd;}</style>
  </defs>
  <title>friends-group</title>
  <path class="cls-1" d="M16.59,25.38c-5,.21-10.13,4.52-13.16,10.93A26.58,26.58,0,0,0,.88,46.92a80.56,80.56,0,0,0-.88,12c1,6.16,8.79,4.34,9.46,0l.95-12.42a13.68,13.68,0,0,1,1-4.93,8.18,8.18,0,0,1,1.29-2.15l.46,22.69L12.93,64H34.42l-.29-2.11.42-25a16.82,16.82,0,0,1,5.88-1.36q-.24.47-.48,1a27.81,27.81,0,0,0-2.67,11.14,84.62,84.62,0,0,0-.93,12.62c1,6.47,9.23,4.56,9.93,0l1-13A14.38,14.38,0,0,1,48.36,42a9,9,0,0,1,1.36-2.26l.49,22.63-.33,2.32H72.54l-.35-2.55.35-19.31v.4l.08-3.49A9.33,9.33,0,0,1,74,42a14.38,14.38,0,0,1,1.08,5.18l1,13c1,6.22,9.93,6.35,9.93,0a84.59,84.59,0,0,0-.92-12.62,28,28,0,0,0-2.68-11.14c-.16-.33-.31-.65-.47-1a16.38,16.38,0,0,1,6.42,1.37l.42,25L88.46,64H110l-.27-1.89.47-22.69a8.18,8.18,0,0,1,1.29,2.15,13.68,13.68,0,0,1,1,4.93l1,12.42c.67,4.34,8.48,6.16,9.46,0a80.56,80.56,0,0,0-.88-12,26.58,26.58,0,0,0-2.55-10.61c-3-6.41-8.2-10.72-13.16-10.93A164.55,164.55,0,0,0,81,25c-3.38.26-6.79.49-9.19.83a16.61,16.61,0,0,0-3.34-.71c-4-.33-10.62,0-14.59-.08a18.41,18.41,0,0,0-3.21.72c-2.37-.33-5.56-.6-8.73-.76a225.25,225.25,0,0,0-25.32.34ZM99.29,1.3a11.14,11.14,0,1,0,11.14,11.14A11.13,11.13,0,0,0,99.29,1.3ZM61.2,0A11.7,11.7,0,1,1,49.51,11.69,11.7,11.7,0,0,1,61.2,0ZM23.58,1.3A11.14,11.14,0,1,1,12.45,12.44,11.14,11.14,0,0,1,23.58,1.3Z" style="fill: rgb(252, 239, 237);"/>
</svg>