<svg xmlns="http://www.w3.org/2000/svg" shape-rendering="geometricPrecision" text-rendering="geometricPrecision" image-rendering="optimizeQuality" fill-rule="evenodd" clip-rule="evenodd" viewBox="0 0 411 512.07"><path d="M411 485.29c0 7.44-3 14.1-7.85 18.95-4.82 4.83-11.5 7.83-18.82 7.83H26.79c-7.32 0-14.12-3-18.94-7.83C3 499.39 0 492.73 0 485.29V26.79c0-7.45 3-14.13 7.85-18.95C12.67 3 19.33 0 26.79 0h230.02c4.58 0 8.77 2.08 11.51 5.49l128.61 125.23c4.48 4.37 14.07 12.4 14.07 19.38v335.19zM180.88 363.2c0-8.56.61-16.24 1.86-23.04 1.21-6.83 3.33-12.96 6.35-18.34 2.96-5.38 7.09-10.16 12.26-14.29 4.52-3.56 8.39-6.98 11.56-10.4 3.22-3.36 5.68-6.73 7.45-10.05 1.75-3.37 2.65-6.69 2.65-10.06 0-6.73-1.4-11.62-4.27-14.57-2.87-2.93-7.14-4.44-12.81-4.44-16.35 0-17.96 13.1-17.96 30.49h-53.34c.21-15.44 3.51-36.54 9.81-45.91 6.32-9.43 14.82-16.3 25.54-20.61 10.7-4.34 22.72-6.49 35.95-6.49 21.91 0 39.1 4.92 51.62 14.78 12.52 9.85 18.81 24.58 18.81 44.13 0 8.45-1.66 15.64-4.88 21.62-3.27 5.99-7.53 11.57-12.87 16.74a2252.96 2252.96 0 0 1-17.9 16.85c-5.73 4.92-9.55 9.79-11.51 14.58-1.96 4.83-3.07 11.16-3.37 19.01h-44.95zm-6.32 44.03c0-7.85 2.71-14.38 8.08-19.56 5.44-5.22 12.42-7.84 21.07-7.84 8.75 0 15.79 2.62 21.17 7.84 5.32 5.18 7.98 11.71 7.98 19.56 0 7.74-2.66 14.27-7.98 19.5-5.38 5.28-12.42 7.9-21.17 7.9-8.65 0-15.63-2.62-21.07-7.9-5.37-5.23-8.08-11.76-8.08-19.5zm100.2-357.88 89.5 83.83h-89.5V49.35zM384.13 163.1c0 105.36.1 216.67.1 322.1H26.89V26.75h217.94v121.32c0 8.24 6.67 15.03 15.02 15.03h124.28z" style="fill: rgb(252, 239, 237);"/></svg>