<svg xmlns="http://www.w3.org/2000/svg" shape-rendering="geometricPrecision"
     text-rendering="geometricPrecision" image-rendering="optimizeQuality" fill-rule="evenodd"
     clip-rule="evenodd" viewBox="0 0 512 488.38">
    <path d="M512 391.28v77.87c.03 10.25-8.38 18.66-18.67 18.66h-43.07l.02-115.18 43.07.02c10.25 0 18.63 8.41 18.65 18.63zM67.22 348.86c0 .84-.07 1.69-.21 2.49l-19.78 10.69c-5.11-2.19-8.69-7.27-8.69-13.18V101.72c0-6.77 2.72-12.99 7.12-17.51 4.57-4.65 10.78-7.45 17.63-7.45h15.92c7.9 0 14.34 6.43 14.34 14.34 0 7.9-6.44 14.34-14.34 14.34H67.22v243.42zm133.34-43.89c-7.91 0-14.34-6.43-14.34-14.34 0-7.9 6.43-14.34 14.34-14.34H351.7c7.9 0 14.33 6.44 14.33 14.34 0 7.91-6.43 14.34-14.33 14.34H200.56zm0-70.24c-7.91 0-14.34-6.43-14.34-14.34 0-7.9 6.43-14.34 14.34-14.34H396.1c7.9 0 14.33 6.44 14.33 14.34 0 7.91-6.43 14.34-14.33 14.34H200.56zM348.93 5.22l117.48 123.53c5.87 1.79 10.14 7.26 10.14 13.71v196.38l-26.27-.02-2.4.09V159.37l-110.02.06c-7.9 0-14.33-6.44-14.33-14.34V28.68H145.48v310.86l-28.67.05V24.94c0-6.83 2.82-13.07 7.32-17.56C128.69 2.82 134.98 0 141.75 0h194.5l.81.02.8-.02c4.46 0 8.44 2.03 11.07 5.22zm79.93 125.53-76.66-80.6v80.6h76.66zM96.98 488.38c-20.37-10.77-40.79-21.55-61.19-32.31-42.48-25.22-48.79-17.49-10.06-42.86L97 373.42l331.49-.77v115.16l-331.51.57zm.02-95.31v75.64c-13.39-7.08-26.79-14.16-40.16-21.25C7.32 423.41 47.8 422.05 97 393.07z"
          style="fill: rgb(252, 239, 237);"/>
</svg>