<svg id="Layer_1" data-name="Layer 1" xmlns="http://www.w3.org/2000/svg" viewBox="0 0 122.88 121.26"><defs><style>.cls-1{fill-rule:evenodd;}</style></defs><title>market-share</title><path class="cls-1" d="M65.17,69.35l48.1.8a51.36,51.36,0,0,1-22.67,42.6L65.17,69.35Zm45.12-30.51V57.62l5.48.16a56.86,56.86,0,0,0-5.48-18.94ZM105,57.46V30.13a57.25,57.25,0,0,0-5.55-6.49V57.29l5.55.17Zm-10.83-.34V19a56,56,0,0,0-5.55-3.85V57l5.55.17Zm-10.83-.33V12.25A58.91,58.91,0,0,0,77.79,10V56.62l5.56.17Zm-10.84-.33v-48c-1.92-.48-3.82-.85-5.5-1.13v49l5.5.17ZM60.4,0A76.5,76.5,0,0,1,76.53,2.56a63.9,63.9,0,0,1,46.19,58.53l.16,3.59L60.4,62.76V0ZM54.85,66.41l27.43,47.51A54.86,54.86,0,1,1,52.53,11.6l2.32,54.81Z"/></svg>